<svg width="24" height="24" viewBox="0 0 24 24" fill="none" xmlns="http://www.w3.org/2000/svg">
<path fill-rule="evenodd" clip-rule="evenodd" d="M11.9999 2.3999C9.45382 2.3999 7.01203 3.41133 5.21168 5.21168C3.41133 7.01203 2.3999 9.45382 2.3999 11.9999C2.3999 14.546 3.41133 16.9878 5.21168 18.7881C7.01203 20.5885 9.45382 21.5999 11.9999 21.5999H16.7999C18.2911 21.5999 19.0367 21.5999 19.6244 21.3567C20.0128 21.1959 20.3657 20.9601 20.6629 20.6629C20.9601 20.3657 21.1959 20.0128 21.3567 19.6244C21.5999 19.0367 21.5999 18.2911 21.5999 16.7999V11.9999C21.5999 9.45382 20.5885 7.01203 18.7881 5.21168C16.9878 3.41133 14.546 2.3999 11.9999 2.3999ZM7.73324 10.9332C7.73324 10.6503 7.84562 10.379 8.04566 10.179C8.24569 9.97895 8.517 9.86657 8.7999 9.86657H15.1999C15.4828 9.86657 15.7541 9.97895 15.9542 10.179C16.1542 10.379 16.2666 10.6503 16.2666 10.9332C16.2666 11.2161 16.1542 11.4874 15.9542 11.6875C15.7541 11.8875 15.4828 11.9999 15.1999 11.9999H8.7999C8.517 11.9999 8.24569 11.8875 8.04566 11.6875C7.84562 11.4874 7.73324 11.2161 7.73324 10.9332ZM10.9332 15.1999C10.9332 14.917 11.0456 14.6457 11.2457 14.4457C11.4457 14.2456 11.717 14.1332 11.9999 14.1332H15.1999C15.4828 14.1332 15.7541 14.2456 15.9542 14.4457C16.1542 14.6457 16.2666 14.917 16.2666 15.1999C16.2666 15.4828 16.1542 15.7541 15.9542 15.9542C15.7541 16.1542 15.4828 16.2666 15.1999 16.2666H11.9999C11.717 16.2666 11.4457 16.1542 11.2457 15.9542C11.0456 15.7541 10.9332 15.4828 10.9332 15.1999Z" fill="white"/>
</svg>
