<svg width="103" height="25" viewBox="0 0 103 25" fill="none" xmlns="http://www.w3.org/2000/svg">
<path d="M34.4607 17.0638H31.1738V15.558H31.1272C30.9939 15.7868 30.8372 16.0011 30.6596 16.1976C30.4575 16.4208 30.2234 16.6128 29.9649 16.7673C29.6708 16.9425 29.356 17.0805 29.0277 17.1782C28.6572 17.2865 28.2728 17.34 27.8868 17.3371C27.1619 17.3652 26.4401 17.2287 25.7757 16.9379C25.2615 16.6949 24.8263 16.3121 24.5203 15.8332C24.2101 15.3249 24.008 14.7582 23.9265 14.1685C23.8243 13.4821 23.775 12.7888 23.779 12.0948V5.98438H27.2018V11.4107C27.2018 11.7286 27.2135 12.06 27.2368 12.401C27.2557 12.7257 27.3251 13.0454 27.4424 13.3487C27.6665 13.9924 28.3044 14.3976 28.9831 14.3274C29.3555 14.3429 29.7254 14.2607 30.0561 14.089C30.3204 13.938 30.5374 13.7166 30.6828 13.4495C30.8319 13.1696 30.9286 12.8648 30.9681 12.5503C31.0139 12.2027 31.0366 11.8524 31.036 11.5018V5.98438H34.4607V17.0638Z" fill="white"/>
<path fill-rule="evenodd" clip-rule="evenodd" d="M43.7938 15.6725H43.8404V17.0639H46.9896V11.4341C46.9997 10.6112 46.9236 9.78958 46.7626 8.98253C46.636 8.33113 46.3582 7.71847 45.9515 7.19378C45.5425 6.69285 45.0065 6.3107 44.3992 6.08719C43.6036 5.81304 42.7646 5.68565 41.9233 5.71122C41.0216 5.7095 40.1261 5.86021 39.2747 6.15695C38.4437 6.43997 37.6815 6.89423 37.0375 7.49029L38.8634 9.3585C39.2136 8.96061 39.6355 8.63192 40.1072 8.38951C40.5854 8.15163 41.1135 8.03074 41.6478 8.0368C42.2089 8.0253 42.7555 8.21507 43.1884 8.57168C43.621 8.92548 43.8623 9.4614 43.8404 10.0194C43.367 10.0194 42.8547 10.0271 42.2998 10.0426C41.742 10.0576 41.1856 10.1035 40.633 10.1802C40.0881 10.2538 39.5501 10.3718 39.0244 10.5329C38.5304 10.6806 38.0637 10.9077 37.6429 11.2054C37.2427 11.4913 36.9146 11.8661 36.6844 12.3004C36.4352 12.8033 36.3139 13.3597 36.3312 13.9205C36.3207 14.432 36.4297 14.939 36.6494 15.4011C36.8556 15.8186 37.1526 16.1848 37.5187 16.4728C37.8951 16.7673 38.3246 16.9871 38.7838 17.1201C39.269 17.266 39.7732 17.3392 40.2798 17.3372C40.9643 17.3395 41.6427 17.2078 42.2765 16.9496C42.9043 16.6941 43.4353 16.2471 43.7938 15.6725ZM42.0242 12.2442C42.4123 12.2209 42.7363 12.2093 42.9944 12.2093H43.8385V12.938C43.8456 13.2552 43.7707 13.5689 43.6211 13.8488C43.479 14.1039 43.2798 14.3227 43.039 14.4883C42.7837 14.6605 42.5028 14.7913 42.2066 14.8759C41.8916 14.9686 41.5648 15.015 41.2364 15.0135C40.8513 15.0124 40.4732 14.9102 40.1401 14.717C39.8016 14.5425 39.5967 14.1862 39.6162 13.8062C39.5978 13.4676 39.7367 13.1394 39.9927 12.9166C40.2598 12.6951 40.5705 12.532 40.9046 12.438C41.2691 12.3305 41.6448 12.2655 42.0242 12.2442Z" fill="white"/>
<path d="M49.1338 5.98452H52.4208V7.49033H52.4654C52.587 7.25662 52.7412 7.04131 52.9233 6.8508C53.1323 6.63033 53.3698 6.43871 53.6296 6.28103C53.9235 6.10579 54.2384 5.96839 54.5668 5.87212C54.937 5.76209 55.3215 5.70788 55.7077 5.71126C56.4289 5.68257 57.1471 5.81913 57.8072 6.11049C58.3168 6.35661 58.7475 6.73984 59.051 7.21708C59.3619 7.72524 59.5671 8.29075 59.6544 8.87987C59.7653 9.56612 59.8191 10.2603 59.8155 10.9554V17.064H56.3907V11.6376C56.3907 11.3198 56.381 10.9884 56.3578 10.6473C56.3388 10.3233 56.2694 10.0042 56.1521 9.70157C55.9281 9.05762 55.2905 8.65176 54.6114 8.72095C54.239 8.70493 53.8689 8.78715 53.5384 8.95932C53.2742 9.11033 53.0572 9.33176 52.9117 9.59886C52.7617 9.8784 52.665 10.1833 52.6264 10.4981C52.579 10.8455 52.5557 11.1959 52.5566 11.5465V17.064H49.1338V5.98452Z" fill="white"/>
<path d="M69.789 8.72064H66.7756V12.4028C66.7741 12.6813 66.7897 12.9596 66.8221 13.2361C66.8449 13.4645 66.9149 13.6856 67.0278 13.8854C67.1419 14.0791 67.3164 14.2302 67.5246 14.3156C67.8039 14.4263 68.1033 14.4771 68.4035 14.4648C68.6445 14.4603 68.8849 14.4409 69.1234 14.4067C69.3664 14.3892 69.5984 14.2987 69.789 14.147V16.9958C69.4053 17.1339 69.0068 17.2262 68.6015 17.271C68.2 17.3154 67.7965 17.338 67.3926 17.3389C66.8542 17.3429 66.3174 17.2817 65.7938 17.1567C65.3345 17.0472 64.9009 16.8497 64.517 16.5753C64.1488 16.3073 63.8544 15.9506 63.6613 15.5385C63.4429 15.0515 63.3375 14.5215 63.3528 13.9881V8.72064H61.1621V5.98421H63.3528V2.71289H66.7756V5.98421H69.789V8.72064Z" fill="white"/>
<path d="M82.2033 17.0638H78.9164V15.558H78.8717C78.7385 15.7868 78.5817 16.0011 78.4041 16.1976C78.2014 16.4208 77.9666 16.6128 77.7075 16.7673C77.4143 16.9429 77.1 17.081 76.7723 17.1782C76.4017 17.2862 76.0174 17.3397 75.6313 17.3371C74.9065 17.3652 74.1846 17.2287 73.5202 16.9379C73.0057 16.6955 72.5704 16.3125 72.2648 15.8332C71.9546 15.3249 71.7525 14.7582 71.6711 14.1685C71.5682 13.4821 71.5183 12.7889 71.5216 12.0948V5.98438H74.9464V11.4107C74.9464 11.7286 74.958 12.06 74.9794 12.401C74.9992 12.7255 75.0686 13.0451 75.1851 13.3487C75.4103 13.9914 76.0474 14.3961 76.7257 14.3274C77.1014 14.3453 77.4751 14.2631 77.8084 14.089C78.0732 13.9381 78.2908 13.7167 78.4371 13.4495C78.5853 13.1692 78.6819 12.8646 78.7223 12.5503C78.7682 12.2027 78.7909 11.8524 78.7902 11.5018V5.98438H82.213L82.2033 17.0638Z" fill="white"/>
<path d="M84.623 5.98436H87.9081V7.49018H87.9546C88.0756 7.25651 88.2291 7.04118 88.4106 6.85064C88.6203 6.63015 88.8585 6.43854 89.1189 6.28087C89.4122 6.10595 89.7264 5.96856 90.0541 5.87196C90.4244 5.76219 90.8089 5.70798 91.1951 5.71111C91.9129 5.69799 92.6228 5.86244 93.2615 6.18979C93.8737 6.52144 94.3532 7.05304 94.6198 7.6956C94.9405 7.05746 95.44 6.52621 96.0576 6.16653C96.7011 5.84513 97.4146 5.68862 98.1338 5.71111C98.7817 5.69114 99.4256 5.81976 100.016 6.08708C100.502 6.31802 100.92 6.67214 101.227 7.11421C101.537 7.57718 101.755 8.09573 101.869 8.64134C102.001 9.25916 102.066 9.88942 102.063 10.5212V17.0638H98.6363V10.6123C98.649 10.146 98.5343 9.68503 98.3045 9.27894C98.0853 8.91459 97.6914 8.7208 97.1306 8.7208C96.789 8.70915 96.4493 8.77543 96.1372 8.91459C95.881 9.03458 95.6604 9.21887 95.4968 9.44948C95.3318 9.69077 95.2158 9.96204 95.1553 10.2479C95.086 10.5623 95.0516 10.8834 95.0525 11.2053V17.0638H91.6297V11.2053C91.6297 11.0115 91.6297 10.7654 91.6064 10.4747C91.5928 10.1952 91.5392 9.91917 91.4473 9.6549C91.3579 9.39998 91.2042 9.17237 91.001 8.99405C90.7449 8.79522 90.4243 8.6979 90.1007 8.7208C89.7282 8.70459 89.3581 8.78682 89.0277 8.95917C88.7634 9.11018 88.5464 9.3316 88.4009 9.5987C88.251 9.87825 88.1543 10.1831 88.1157 10.4979C88.0683 10.8454 88.0449 11.1957 88.0458 11.5464V17.0638H84.623V5.98436Z" fill="white"/>
<path d="M39.6879 21.3391C39.5632 21.1755 39.399 21.0461 39.2106 20.9631C39.0242 20.8758 38.8208 20.8308 38.6149 20.8313C38.3802 20.8277 38.1476 20.876 37.9338 20.9728C37.7345 21.0629 37.5571 21.1952 37.4138 21.3604C37.2642 21.5302 37.1495 21.7278 37.0762 21.9418C36.9966 22.1684 36.9566 22.407 36.9578 22.6472C36.9564 22.873 36.9945 23.0973 37.0704 23.31C37.1425 23.5133 37.2532 23.7008 37.3964 23.8623C37.5416 24.0233 37.7196 24.1514 37.9183 24.2383C38.1379 24.3336 38.3755 24.3805 38.6149 24.3759C38.8481 24.3809 39.0789 24.3276 39.2863 24.2208C39.4815 24.1137 39.6494 23.9632 39.7772 23.7809L40.2856 24.1685C40.2306 24.2366 40.1717 24.3013 40.109 24.3623C40.0091 24.459 39.8977 24.543 39.7772 24.6123C39.6196 24.7064 39.4516 24.7819 39.2766 24.8371C39.0589 24.9058 38.8315 24.9386 38.6033 24.934C38.2758 24.9415 37.9508 24.8753 37.6525 24.7402C37.1102 24.4882 36.6876 24.0349 36.4747 23.4767C36.3716 23.2122 36.3184 22.931 36.3175 22.6472C36.3142 22.3223 36.3714 21.9996 36.4863 21.6957C36.5938 21.4163 36.7554 21.1608 36.9617 20.9437C37.1682 20.7302 37.4175 20.5624 37.6932 20.4515C37.9924 20.3323 38.3122 20.273 38.6343 20.277C38.9302 20.2779 39.2233 20.3352 39.4978 20.4457C39.772 20.553 40.0116 20.7333 40.1905 20.967L39.6879 21.3391Z" fill="#83B327"/>
<path fill-rule="evenodd" clip-rule="evenodd" d="M44.8571 24.752C45.1536 24.874 45.4717 24.9347 45.7923 24.9303C46.1129 24.9343 46.431 24.8736 46.7276 24.752C47.0025 24.6394 47.2514 24.4719 47.4591 24.2598C47.6642 24.0469 47.8257 23.7961 47.9345 23.5214C48.1647 22.9286 48.1647 22.2712 47.9345 21.6784C47.8257 21.4031 47.6642 21.1517 47.4591 20.9381C47.2514 20.7259 47.0025 20.5584 46.7276 20.4458C46.1268 20.2082 45.4579 20.2082 44.8571 20.4458C44.5816 20.5572 44.3324 20.7249 44.1256 20.9381C43.9192 21.1511 43.757 21.4026 43.6482 21.6784C43.418 22.2712 43.418 22.9286 43.6482 23.5214C43.7571 23.7965 43.9193 24.0475 44.1256 24.2598C44.3324 24.4729 44.5816 24.6406 44.8571 24.752ZM47.0089 23.847C46.6969 24.1866 46.2537 24.3758 45.7923 24.3664C45.3303 24.3763 44.8863 24.1871 44.5738 23.847C44.425 23.6835 44.3097 23.4926 44.2342 23.285C44.0765 22.8412 44.0765 22.3567 44.2342 21.9129C44.3097 21.7052 44.425 21.5143 44.5738 21.3509C44.7215 21.1872 44.9011 21.0553 45.1016 20.9633C45.756 20.6819 46.5166 20.8364 47.0089 21.3509C47.1584 21.5138 47.2738 21.7049 47.3485 21.9129C47.5063 22.3567 47.5063 22.8412 47.3485 23.285C47.2738 23.493 47.1584 23.684 47.0089 23.847Z" fill="#83B327"/>
<path d="M51.6562 20.3799H52.5546L53.9672 23.7403H53.9924L55.3914 20.3799H56.2898V24.8179H55.6883V21.1686H55.6767L54.1768 24.8179H53.7751L52.2733 21.1686H52.2616V24.8179H51.6582L51.6562 20.3799Z" fill="#83B327"/>
<path fill-rule="evenodd" clip-rule="evenodd" d="M61.684 20.3798H60.1201L60.1298 24.8178H60.7333V22.8624H61.684C61.9236 22.87 62.1622 22.8305 62.3865 22.7461C62.5523 22.6819 62.7015 22.5812 62.823 22.4515C62.9275 22.3369 63.0039 22.1995 63.0462 22.0504C63.1289 21.7702 63.1289 21.4721 63.0462 21.1919C63.0039 21.0427 62.9275 20.9054 62.823 20.7907C62.7015 20.661 62.5523 20.5604 62.3865 20.4961C62.1622 20.4117 61.9236 20.3722 61.684 20.3798ZM61.5094 22.3353H60.7333V20.907H61.5094C61.6264 20.9072 61.7431 20.9163 61.8587 20.9341C61.9667 20.9514 62.071 20.9867 62.1672 21.0388C62.2575 21.0892 62.332 21.1637 62.3826 21.2539C62.4911 21.4867 62.4911 21.7555 62.3826 21.9884C62.3312 22.0779 62.2568 22.1521 62.1672 22.2035C62.071 22.2555 61.9667 22.2909 61.8587 22.3081C61.7431 22.326 61.6264 22.3351 61.5094 22.3353Z" fill="#83B327"/>
<path d="M66.5757 20.3799H67.1791V24.2559H69.2185V24.8198H66.5757V20.3799Z" fill="#83B327"/>
<path d="M72.5693 20.3799H73.1728V24.8179H72.5693V20.3799Z" fill="#83B327"/>
<path fill-rule="evenodd" clip-rule="evenodd" d="M78.984 20.3799H78.4368L76.4712 24.8179H77.1736L77.6141 23.721H79.7368L80.1831 24.8179H80.8855L78.984 20.3799ZM78.689 21.157L79.5176 23.1938H77.8353L78.6754 21.157H78.689Z" fill="#83B327"/>
<path d="M84.1958 20.3799H84.9874L87.4342 24.031H87.4478V20.3799H88.0493V24.8179H87.2829L84.8109 21.1686H84.7934V24.8179H84.1919L84.1958 20.3799Z" fill="#83B327"/>
<path d="M95.0195 21.3391C94.8938 21.1764 94.7299 21.0472 94.5421 20.9631C94.3557 20.8759 94.1523 20.8309 93.9465 20.8314C93.7118 20.8278 93.4792 20.8761 93.2654 20.9728C93.0657 21.0634 92.8878 21.1956 92.7434 21.3604C92.5951 21.5309 92.4812 21.7283 92.4077 21.9418C92.3272 22.1682 92.2872 22.407 92.2894 22.6473C92.288 22.873 92.326 23.0973 92.4019 23.31C92.474 23.5134 92.5847 23.7009 92.7279 23.8624C92.8732 24.0233 93.0511 24.1515 93.2499 24.2383C93.4695 24.3336 93.7071 24.3806 93.9465 24.3759C94.1797 24.3807 94.4104 24.3274 94.6178 24.2209C94.8124 24.1136 94.9797 23.9631 95.1068 23.781L95.6152 24.1686C95.5616 24.2372 95.5032 24.302 95.4405 24.3624C95.3408 24.4622 95.2286 24.5488 95.1068 24.6201C94.9501 24.7146 94.7827 24.7901 94.6081 24.8449C94.3898 24.9138 94.1617 24.9465 93.9329 24.9418C93.6054 24.9489 93.2806 24.8827 92.9821 24.748C92.1712 24.365 91.6527 23.5509 91.6491 22.655C91.6457 22.3301 91.703 22.0074 91.8179 21.7035C91.9254 21.4241 92.0869 21.1686 92.2933 20.9515C92.4996 20.7386 92.748 20.5709 93.0228 20.4593C93.3228 20.3402 93.6431 20.2809 93.9659 20.2848C94.2612 20.2853 94.5537 20.3426 94.8274 20.4535C95.1025 20.5602 95.3428 20.7406 95.522 20.9748L95.0195 21.3391Z" fill="#83B327"/>
<path d="M99.0767 20.3799H101.946V20.9438H99.6801V22.2675H101.789V22.8314H99.6801V24.2539H102.063V24.8179H99.0767V20.3799Z" fill="#83B327"/>
<path d="M21.0566 6.339C20.5174 5.07895 19.7317 3.9391 18.7456 2.98629C17.7506 2.03777 16.5801 1.29196 15.2996 0.79055C13.9463 0.257369 12.503 -0.0110661 11.0482 -0.000147535C9.593 -0.011306 8.14872 0.251686 6.79107 0.775046C5.51248 1.26963 4.34409 2.01116 3.35274 2.95722C2.36384 3.91363 1.5779 5.05913 1.04177 6.32543C0.465162 7.6865 0.176476 9.15191 0.193833 10.6297C0.165471 12.1659 0.448624 13.692 1.02625 15.1161C2.07914 17.6751 4.18914 19.6539 6.81241 20.5425C7.94055 20.9217 9.11605 21.1421 10.3051 21.1975C4.7207 16.7169 4.41218 11.525 4.41218 11.525C4.37627 11.2286 4.35813 10.9303 4.35785 10.6316C4.35054 9.70111 4.53 8.77856 4.88563 7.91846C5.55206 6.28259 6.82871 4.96928 8.44619 4.25567C10.1075 3.53992 11.9908 3.53992 13.6522 4.25567C15.2697 4.96928 16.5463 6.28259 17.2128 7.91846C17.9144 9.65936 17.9144 11.6039 17.2128 13.3448C16.9112 14.0799 16.4845 14.7572 15.9515 15.3468C16.0252 15.4301 16.099 15.5115 16.1669 15.5987C16.9954 16.6452 17.4689 17.9417 17.7464 19.2673C17.758 19.3216 17.7677 19.3758 17.7774 19.4301C17.8472 19.3797 17.919 19.3293 17.987 19.277C18.6081 18.8025 19.1663 18.2509 19.6479 17.6355C21.175 15.684 21.9045 13.1781 21.9045 10.6316C21.9221 9.15759 21.6334 7.69592 21.0566 6.339Z" fill="white"/>
<path d="M11.1512 14.8315C14.576 16.0854 16.7919 19.1144 18.0725 21.5117C18.0725 21.4516 18.0725 21.3916 18.055 21.3334C17.9884 20.6405 17.8854 19.9516 17.7465 19.2695C17.4632 17.9439 16.9956 16.6474 16.1671 15.6009C15.2351 14.4668 14.0347 13.5829 12.6744 13.0292C11.031 12.3467 9.27323 11.9805 7.49365 11.9497C7.68769 11.9497 8.03889 12.8199 8.09711 12.9865C8.2675 13.5008 8.39726 14.0276 8.48518 14.5621C8.84803 16.473 9.01296 18.3257 10.4003 19.8296C11.582 21.1086 13.0858 21.5447 14.7157 21.9613C15.3541 22.128 15.9983 22.2985 16.6192 22.5234C14.9408 17.6745 11.1512 14.8315 11.1512 14.8315Z" fill="url(#paint0_linear_399_11312)"/>
<path d="M11.1509 14.8311C11.1509 14.8311 16.1493 18.583 17.2145 24.8272H19.4886C19.4886 24.8272 17.2145 17.0539 11.1509 14.8311Z" fill="white"/>
<defs>
<linearGradient id="paint0_linear_399_11312" x1="25.4779" y1="22.3749" x2="17.1092" y2="9.03401" gradientUnits="userSpaceOnUse">
<stop stop-color="#1A7CA6"/>
<stop offset="0.07" stop-color="#2A869C"/>
<stop offset="0.27" stop-color="#539E80"/>
<stop offset="0.47" stop-color="#74B26B"/>
<stop offset="0.67" stop-color="#8BC05B"/>
<stop offset="0.85" stop-color="#99C852"/>
<stop offset="1" stop-color="#9ECB4F"/>
</linearGradient>
</defs>
</svg>
