<svg width="36" height="36" viewBox="0 0 36 36" fill="none" xmlns="http://www.w3.org/2000/svg">
<rect width="36" height="36" rx="4" fill="#E1E3E5"/>
<path d="M24 17.1818V18.8182C24 19.2699 23.6335 19.6364 23.1818 19.6364H19.6364V23.1818C19.6364 23.6335 19.2699 24 18.8182 24H17.1818C16.7301 24 16.3636 23.6335 16.3636 23.1818V19.6364H12.8182C12.3665 19.6364 12 19.2699 12 18.8182V17.1818C12 16.7301 12.3665 16.3636 12.8182 16.3636H16.3636V12.8182C16.3636 12.3665 16.7301 12 17.1818 12H18.8182C19.2699 12 19.6364 12.3665 19.6364 12.8182V16.3636H23.1818C23.6335 16.3636 24 16.7301 24 17.1818Z" fill="#32353F"/>
</svg>
